<svg xmlns="http://www.w3.org/2000/svg" width="24" height="24" viewBox="0 0 24 24" fill="none"><path fill-rule="evenodd" clip-rule="evenodd" d="M6 19H4C3.4478 18.9998 3.0002 18.5522 3 18V16C3.0002 15.4478 3.4478 15.0002 4 15H6C6.5522 15.0002 6.9998 15.4478 7 16V18C6.9998 18.5522 6.5522 18.9998 6 19Z" stroke="#F26C0D" stroke-width="1.5" stroke-linecap="round" stroke-linejoin="round"></path><path fill-rule="evenodd" clip-rule="evenodd" d="M18 7H16C15.4478 6.9998 15.0002 6.5522 15 6V4C15.0002 3.4478 15.4478 3.0002 16 3H18C18.5522 3.0002 18.9998 3.4478 19 4V6C18.9998 6.5522 18.5522 6.9998 18 7Z" stroke="#F26C0D" stroke-width="1.5" stroke-linecap="round" stroke-linejoin="round"></path><path d="M15 5H12.5C8.35786 5 5 8.35786 5 12.5V15" stroke="#F26C0D" stroke-width="1.5" stroke-linecap="round" stroke-linejoin="round"></path><path fill-rule="evenodd" clip-rule="evenodd" d="M20.3113 16.1486L17.805 17.2021C17.5341 17.316 17.3186 17.5314 17.2047 17.8023L16.149 20.312C15.9644 20.7502 15.5241 21.025 15.0493 20.9982C14.5746 20.9715 14.1679 20.6489 14.0338 20.1927L12.0468 13.4429C11.9306 13.0482 12.0393 12.6215 12.3303 12.3306C12.6213 12.0397 13.0479 11.931 13.4426 12.0473L20.1922 14.0336C20.6484 14.1676 20.971 14.5743 20.9978 15.0491C21.0245 15.5239 20.7496 15.9642 20.3113 16.1486Z" stroke="#F26C0D" stroke-width="1.5" stroke-linecap="round" stroke-linejoin="round"></path></svg>