<svg xmlns="http://www.w3.org/2000/svg" width="24" height="24" viewBox="0 0 24 24" fill="none"><path d="M4 9V7C4 5.89543 4.89543 5 6 5H16" stroke="#F26C0D" stroke-width="1.5" stroke-linecap="round" stroke-linejoin="round"></path><path d="M21 18.499V4.49902C21 3.11831 19.8807 1.99902 18.5 1.99902H17C16.4477 1.99902 16 2.44674 16 2.99902V14.999C16 15.5513 16.4477 15.999 17 15.999H18.5C19.8807 15.999 21 17.1183 21 18.499ZM21 18.499C21 19.8797 19.8807 20.999 18.5 20.999H15" stroke="#F26C0D" stroke-width="1.5" stroke-linecap="round" stroke-linejoin="round"></path><path d="M7 11V12" stroke="#F26C0D" stroke-width="1.5" stroke-linecap="round" stroke-linejoin="round"></path><path d="M11 17.5C10.1986 18.9495 8.65569 19.8311 7 19.7855C5.34431 19.8311 3.80139 18.9495 3 17.5" stroke="#F26C0D" stroke-width="1.5" stroke-linecap="round" stroke-linejoin="round"></path><path d="M7.84375 15.2837L11.0002 21.0001" stroke="#F26C0D" stroke-width="1.5" stroke-linecap="round" stroke-linejoin="round"></path><path d="M3 21.0001L6.15643 15.2837" stroke="#F26C0D" stroke-width="1.5" stroke-linecap="round" stroke-linejoin="round"></path><path d="M5.76256 12.5126C5.07915 13.196 5.07915 14.304 5.76256 14.9874C6.44598 15.6709 7.55402 15.6709 8.23744 14.9874C8.92085 14.304 8.92086 13.196 8.23744 12.5126C7.90925 12.1844 7.46413 12 7 12C6.53587 12 6.09075 12.1844 5.76256 12.5126Z" stroke="#F26C0D" stroke-width="1.5" stroke-linecap="round" stroke-linejoin="round"></path></svg>