<svg width="496" height="496" viewBox="0 0 496 496" fill="none" xmlns="http://www.w3.org/2000/svg">
<path d="M373.158 194.581C380.267 199.687 380.699 206.524 378.286 213.533C375.511 221.596 376.294 228.718 381.294 235.612C385.801 241.827 395.593 246.086 402.788 244.363C411.912 242.178 418.129 236.849 420.631 227.512C421.893 222.804 421.172 218.367 419.587 213.934C415.314 201.986 422.326 191.782 434.97 191.665C444.135 191.58 453.304 191.561 462.468 191.68C472.114 191.805 479.605 197.175 479.505 208.595C479.119 252.424 479.058 296.261 479.558 340.088C479.679 350.706 469.297 361.041 458.879 360.443C452.068 360.052 445.217 360.343 438.384 360.368C432.44 360.389 431.781 361.257 433.433 366.694C440.591 390.241 422.962 413.86 398.261 413.254C380.608 412.822 366.545 401.806 363.442 383.139C362.413 376.95 362.959 371.227 364.837 365.547C366.192 361.45 364.585 360.372 360.959 360.373C336.96 360.377 312.961 360.417 288.962 360.325C284.867 360.309 284.672 362.143 285.634 365.354C289.174 377.173 287.933 388.394 280.683 398.562C265.043 420.495 231.511 416.913 220.096 395.159C215.093 385.624 214.207 375.861 217.239 365.777C218.618 361.188 217.115 360.289 212.912 360.308C188.247 360.419 163.574 360.056 138.917 360.518C128.961 360.705 119.428 352.573 123.378 339.197C124.843 334.235 126.177 329.608 124.646 324.166C121.584 313.285 108.621 306.484 101.623 307.577C87.6876 309.752 81.9338 317.7 80.5611 329.65C80.2229 332.594 81.6384 335.812 82.5438 338.814C86.6218 352.339 77.4308 361.162 66.4757 360.486C57.178 359.913 47.8168 360.39 38.4838 360.363C28.5731 360.334 22.6592 354.479 22.6581 344.716C22.653 301.051 23.006 257.381 22.4429 213.722C22.2744 200.658 31.5768 192.093 44.1319 191.699C51.125 191.479 58.1314 191.575 65.1297 191.673C68.6657 191.723 69.9098 190.828 68.7329 186.952C64.8677 174.219 66.798 162.289 75.1757 151.83C80.0917 145.693 86.7054 141.511 94.4578 140.273C112.109 137.452 128.059 141.862 136.289 160.868C140.046 169.547 140.112 178.565 137.144 187.574C136.84 188.497 136.216 189.388 136.854 190.674C137.887 192.194 139.709 191.618 141.279 191.621C164.945 191.656 188.611 191.658 212.277 191.629C217.883 191.622 218.426 190.819 216.818 185.483C210.854 165.703 222.797 143.95 243.157 140.118C272.161 134.66 292.381 157.211 286.406 184.09C286.262 184.738 286.172 185.415 285.911 186.015C284.097 190.175 285.466 191.752 289.945 191.687C300.609 191.532 311.277 191.643 321.943 191.646C335.443 191.649 348.942 191.633 362.442 191.667C366.119 191.676 369.726 192.098 373.158 194.581ZM140.945 346.645C149.111 346.646 157.28 346.5 165.44 346.711C169.286 346.81 170.853 345.589 170.715 341.582C170.475 334.591 171.227 327.527 170.523 320.6C169.324 308.807 180.154 300.029 193.008 304.946C202.894 308.727 212.055 305.718 218.909 296.706C224.473 289.388 224.999 280.284 219.539 272.178C214.475 264.661 205.878 259.006 192.075 263.448C179.137 267.611 170.67 261.195 170.657 247.767C170.643 233.826 170.654 219.885 170.654 205.34C159.867 205.34 149.056 204.891 138.3 205.465C127.446 206.044 119.483 195.451 123.554 184.212C125.495 178.85 125.834 173.794 124.121 168.237C119.662 153.763 99.9656 147.978 88.8283 158.263C81.1729 165.332 78.9141 173.72 82.4097 183.963C86.6277 196.323 79.0552 206.658 66.7243 205.442C60.7826 204.856 54.7357 205.33 48.7365 205.337C38.1781 205.349 35.3564 208.114 35.3536 218.551C35.3426 258.546 35.3488 298.541 35.3497 338.536C35.3498 339.536 35.3648 340.536 35.3708 341.536C35.391 344.928 36.7601 346.746 40.4903 346.683C48.8202 346.542 57.1544 346.599 65.4862 346.657C69.1978 346.683 70.0879 345.302 68.9718 341.682C67.2165 335.989 66.4722 330.28 67.4594 324.103C69.6848 310.18 77.6525 300.774 90.202 296.173C103.452 291.315 116.559 293.397 127.319 303.237C138.698 313.643 141.566 326.68 137.428 341.388C136.708 343.945 135.219 346.896 140.945 346.645ZM466.655 274.5C466.655 253.669 466.606 232.837 466.694 212.006C466.714 207.424 464.952 205.223 460.199 205.319C452.703 205.47 445.201 205.318 437.702 205.382C432.365 205.428 431.85 206.185 433.352 211.279C437.964 226.914 432.592 243.344 419.783 252.239C405.515 262.148 382.905 260.426 370.931 245.184C362.603 234.583 360.837 223.111 364.815 210.585C366.104 206.526 364.596 205.365 360.944 205.367C356.278 205.369 351.612 205.35 346.946 205.346C342.029 205.342 337.112 205.345 332.333 205.345C332.333 220.598 332.336 234.906 332.33 249.215C332.329 251.205 332.294 253.133 331.429 255.062C327.882 262.967 320.641 266.201 311.551 263.722C306.771 262.418 302.113 261.21 296.986 262.368C286.042 264.84 278.412 277.236 280.068 288.086C281.904 300.119 297.134 310.769 311.101 304.6C321.86 299.847 332.29 307.541 332.332 319.279C332.359 326.779 332.489 334.282 332.282 341.776C332.18 345.441 333.388 346.799 337.142 346.713C346.137 346.507 355.14 346.592 364.138 346.674C371.26 346.74 376.78 350.41 378.725 356.65C379.982 360.681 379.685 364.84 378.325 368.899C376.727 373.668 375.79 378.398 377.46 383.481C380.477 392.661 389.802 399.755 399.242 399.632C408.619 399.511 417.622 392.094 420.471 382.871C422.172 377.368 420.669 372.466 419.283 367.346C416.084 355.535 422.818 346.721 435.012 346.656C442.678 346.616 450.346 346.553 458.009 346.687C461.98 346.756 464.145 344.588 465.572 341.337C466.59 339.018 466.677 336.519 466.672 333.995C466.635 314.497 466.653 294.998 466.655 274.5ZM191.71 346.649C199.876 346.651 208.043 346.574 216.207 346.676C224.722 346.783 230.261 351.368 232.1 359.568C232.988 363.524 231.534 367.086 230.366 370.73C227.361 380.102 230.593 389.302 239.066 395.786C245.457 400.678 255.415 400.806 262.995 396.095C272.366 390.27 276.21 380.261 271.985 369.271C267.883 358.596 274.536 345.478 288.344 346.537C296.297 347.147 304.343 346.425 312.331 346.734C317.029 346.916 319.094 345.54 318.727 340.562C318.374 335.755 318.772 330.897 318.605 326.07C318.511 323.346 319.537 320.402 317.683 318.077C316.406 317.383 315.523 318.051 314.589 318.316C299.425 322.625 286.185 319.94 274.998 308.182C264.432 297.076 263.211 276.209 271.949 263.885C282.235 249.379 296.887 245.671 313.144 249.814C317.74 250.985 318.771 249.762 318.701 245.48C318.539 235.483 318.672 225.482 318.655 215.483C318.643 208.554 315.652 205.474 308.689 205.383C301.691 205.292 294.623 204.73 287.706 205.48C275.618 206.79 267.479 194.848 272.024 183.841C273.316 180.711 273.789 177.479 273.669 174.087C273.334 164.717 267.082 156.665 257.858 153.919C248.445 151.116 238.792 154.637 233.413 162.558C228.349 170.016 228.66 177.651 231.406 185.861C234.804 196.021 227.91 205.248 217.279 205.334C209.446 205.397 201.612 205.261 193.781 205.375C188.083 205.457 184.455 208.539 184.396 213.506C184.261 224.671 184.37 235.838 184.333 247.004C184.322 250.283 185.678 250.986 188.755 250.073C194.144 248.474 199.575 248.026 205.326 248.52C232.775 250.877 244.883 281.556 231.625 303.239C222.651 317.916 206.208 323.522 189.57 318.344C185.449 317.062 184.126 317.908 184.283 322.186C184.502 328.177 184.622 334.2 184.254 340.177C183.944 345.223 185.715 347.398 191.71 346.649Z" fill="#F26C0D"/>
<path d="M336 57.6457C370.495 57.6464 404.489 57.6284 438.484 57.6563C454.949 57.6699 466.215 68.6069 466.295 85.0012C466.434 113.329 466.322 141.659 466.362 169.987C466.367 173.615 465.497 176.7 461.753 177.945C458.916 178.889 456.242 178.55 454.058 176.023C452.565 174.295 452.672 172.36 452.671 170.379C452.66 156.382 452.67 142.384 452.665 128.386C452.663 120.37 452.656 120.369 444.392 120.369C367.238 120.371 290.084 120.374 212.93 120.376C160.772 120.377 108.613 120.377 56.4552 120.377C49.3635 120.377 49.3555 120.377 49.3524 127.548C49.346 142.046 49.3667 156.544 49.34 171.041C49.3289 177.068 47.4436 179.334 42.5958 179.341C38.0139 179.348 35.6889 176.717 35.679 171.007C35.629 142.179 35.5111 113.349 35.7106 84.5219C35.821 68.5621 47.4003 57.6481 63.5445 57.6475C154.196 57.6447 244.848 57.646 336 57.6457ZM49.4054 84.1453C49.3868 89.4776 49.357 94.8098 49.3524 100.142C49.3459 107.645 49.3539 107.647 57.0115 107.647C185.491 107.646 313.971 107.644 442.45 107.642C444.283 107.642 446.126 107.524 447.947 107.666C451.333 107.932 452.83 106.622 452.7 103.088C452.516 98.0954 452.436 93.0788 452.71 88.0944C453.283 77.6354 445.955 71.1852 435.853 71.2061C312.54 71.4618 189.226 71.3771 65.9121 71.3811C56.2846 71.3814 52.6292 74.039 49.4054 84.1453Z" fill="#F26C0D"/>
<path d="M433.917 430.648C436.57 430.639 438.745 430.755 440.901 430.599C448.817 430.025 452.63 425.973 452.65 418.133C452.683 405.135 452.638 392.136 452.687 379.137C452.709 373.595 454.316 371.799 459.061 371.667C463.846 371.534 466.267 373.82 466.299 379.028C466.388 393.36 466.589 407.698 466.249 422.022C465.925 435.691 455.718 444.311 440.278 444.332C394.615 444.395 348.953 444.362 303.29 444.363C223.631 444.365 143.972 444.347 64.3122 444.419C60.2734 444.423 56.3385 443.934 52.4742 443.059C42.5735 440.816 35.9144 432.424 35.7135 421.656C35.4928 409.828 35.5976 397.992 35.6881 386.16C35.7277 380.992 38.2033 378.563 42.8452 378.669C47.612 378.779 49.295 380.6 49.3266 386.068C49.3884 396.733 49.7564 407.419 49.2238 418.058C48.777 426.986 55.2332 430.174 61.4664 430.622C62.7931 430.717 64.1318 430.647 65.465 430.647C188.12 430.648 310.776 430.648 433.917 430.648Z" fill="#F26C0D"/>
<path d="M69.525 96.7465C65.0016 91.8704 64.5359 86.283 68.0542 82.8278C71.1801 79.758 78.07 79.8687 81.1993 83.0389C83.8871 85.7619 84.2098 91.6294 81.8573 95.0012C79.3563 98.5859 74.8729 99.3282 69.525 96.7465Z" fill="#F26C0D"/>
<path d="M98.1369 92.24C97.3378 88.0746 97.6926 84.408 101.092 82.1006C104.119 80.046 107.807 79.8462 111.06 81.3806C114.509 83.007 115.765 86.129 115.392 90.061C115.047 93.7013 113.716 96.518 110.188 97.7482C106.723 98.9562 103.324 98.9383 100.706 95.756C99.8703 94.7398 99.1124 93.6593 98.1369 92.24Z" fill="#F26C0D"/>
<path d="M142.258 97.7775C133.7 98.9045 127.825 93.234 130.192 86.6421C131.545 82.8751 133.936 80.7089 138.3 80.5662C142.311 80.4351 145.641 81.7982 146.793 85.2811C148.001 88.9317 148.52 93.2342 144.749 96.3053C144.116 96.8212 143.337 97.1581 142.258 97.7775Z" fill="#F26C0D"/>
</svg>
