<svg width="32" height="32" viewBox="0 0 32 32" fill="none" xmlns="http://www.w3.org/2000/svg">
<path d="M10.8941 28.0747C9.07408 25.4773 8.00342 22.3173 8.00342 18.9053C8.00342 14.4867 11.5834 10.9053 15.9994 10.9053C20.4154 10.9053 23.9954 14.4867 23.9954 18.9053" stroke="#F26C0D" stroke-width="2" stroke-linecap="round" stroke-linejoin="round"/>
<path d="M24.4286 26.884C24.2846 26.892 24.1433 26.9053 23.998 26.9053C19.582 26.9053 16.002 23.324 16.002 18.9053" stroke="#F26C0D" stroke-width="2" stroke-linecap="round" stroke-linejoin="round"/>
<path d="M17.663 29.0947C14.2656 26.976 12.003 23.2053 12.003 18.9053C12.003 16.696 13.7936 14.9053 16.0016 14.9053C18.2096 14.9053 20.0003 16.696 20.0003 18.9053C20.0003 21.1147 21.791 22.9053 23.999 22.9053C26.207 22.9053 27.9976 21.1147 27.9976 18.9053C27.9976 12.2773 22.627 6.90533 16.003 6.90533C9.37897 6.90533 4.0083 12.2773 4.0083 18.9053C4.0083 20.3827 4.17363 21.8213 4.47763 23.208" stroke="#F26C0D" stroke-width="2" stroke-linecap="round" stroke-linejoin="round"/>
<path d="M27.1644 7.964C24.4378 4.86667 20.4511 2.90533 16.0004 2.90533C11.5498 2.90533 7.56309 4.86667 4.83643 7.964" stroke="#F26C0D" stroke-width="2" stroke-linecap="round" stroke-linejoin="round"/>
</svg>
