<svg width="32" height="32" viewBox="0 0 32 32" fill="none" xmlns="http://www.w3.org/2000/svg">
<g filter="url(#filter0_ddii_7028_1732)">
<path d="M14.0002 21.3333L11.3335 18.6667L14.0002 16" stroke="#F26C0D" stroke-width="2" stroke-linecap="round" stroke-linejoin="round"/>
<path d="M18 16L20.6667 18.6667L18 21.3333" stroke="#F26C0D" stroke-width="2" stroke-linecap="round" stroke-linejoin="round"/>
<path fill-rule="evenodd" clip-rule="evenodd" d="M25.3333 9.25337H16.7053C16.2637 9.25336 15.8508 9.03466 15.6027 8.66937L13.7293 5.91604C13.4812 5.55162 13.0689 5.33348 12.628 5.33337H6.66667C5.95936 5.33318 5.28097 5.61407 4.78083 6.11421C4.28069 6.61435 3.99981 7.29274 4 8.00004V25.3334C3.99981 26.0407 4.28069 26.7191 4.78083 27.2192C5.28097 27.7193 5.95936 28.0002 6.66667 28H25.3333C26.0406 28.0002 26.719 27.7193 27.2192 27.2192C27.7193 26.7191 28.0002 26.0407 28 25.3334V11.92C27.9999 10.4473 26.8061 9.25344 25.3333 9.25337V9.25337Z" stroke="#F26C0D" stroke-width="2" stroke-linecap="round" stroke-linejoin="round"/>
</g>
<defs>
<filter id="filter0_ddii_7028_1732" x="-1" y="0" width="34" height="34" filterUnits="userSpaceOnUse" color-interpolation-filters="sRGB">
<feFlood flood-opacity="0" result="BackgroundImageFix"/>
<feColorMatrix in="SourceAlpha" type="matrix" values="0 0 0 0 0 0 0 0 0 0 0 0 0 0 0 0 0 0 127 0" result="hardAlpha"/>
<feOffset dy="1"/>
<feGaussianBlur stdDeviation="0.5"/>
<feComposite in2="hardAlpha" operator="out"/>
<feColorMatrix type="matrix" values="0 0 0 0 0 0 0 0 0 0 0 0 0 0 0 0 0 0 0.04 0"/>
<feBlend mode="normal" in2="BackgroundImageFix" result="effect1_dropShadow_7028_1732"/>
<feColorMatrix in="SourceAlpha" type="matrix" values="0 0 0 0 0 0 0 0 0 0 0 0 0 0 0 0 0 0 127 0" result="hardAlpha"/>
<feOffset dy="1"/>
<feComposite in2="hardAlpha" operator="out"/>
<feColorMatrix type="matrix" values="0 0 0 0 0 0 0 0 0 0 0 0 0 0 0 0 0 0 0.01 0"/>
<feBlend mode="normal" in2="effect1_dropShadow_7028_1732" result="effect2_dropShadow_7028_1732"/>
<feBlend mode="normal" in="SourceGraphic" in2="effect2_dropShadow_7028_1732" result="shape"/>
<feColorMatrix in="SourceAlpha" type="matrix" values="0 0 0 0 0 0 0 0 0 0 0 0 0 0 0 0 0 0 127 0" result="hardAlpha"/>
<feOffset dy="1"/>
<feComposite in2="hardAlpha" operator="arithmetic" k2="-1" k3="1"/>
<feColorMatrix type="matrix" values="0 0 0 0 1 0 0 0 0 1 0 0 0 0 1 0 0 0 0.25 0"/>
<feBlend mode="normal" in2="shape" result="effect3_innerShadow_7028_1732"/>
<feColorMatrix in="SourceAlpha" type="matrix" values="0 0 0 0 0 0 0 0 0 0 0 0 0 0 0 0 0 0 127 0" result="hardAlpha"/>
<feOffset dy="-0.5"/>
<feComposite in2="hardAlpha" operator="arithmetic" k2="-1" k3="1"/>
<feColorMatrix type="matrix" values="0 0 0 0 0 0 0 0 0 0 0 0 0 0 0 0 0 0 0.08 0"/>
<feBlend mode="normal" in2="effect3_innerShadow_7028_1732" result="effect4_innerShadow_7028_1732"/>
</filter>
</defs>
</svg>
