<svg xmlns="http://www.w3.org/2000/svg" width="24" height="24" viewBox="0 0 24 24" fill="none"><path fill-rule="evenodd" clip-rule="evenodd" d="M21.3871 18.394L19.6533 19.1227C19.4151 19.2228 19.2255 19.4123 19.1253 19.6505L18.3944 21.3878C18.2304 21.7776 17.839 22.0221 17.4168 21.9984C16.9946 21.9748 16.6329 21.6881 16.5134 21.2825L15.0417 16.2838C14.9384 15.9327 15.0351 15.5532 15.2939 15.2944C15.5526 15.0356 15.9321 14.9388 16.2833 15.0421L21.2819 16.5129C21.6877 16.6323 21.9744 16.9941 21.998 17.4163C22.0216 17.8386 21.777 18.2301 21.3871 18.394Z" stroke="#F26C0D" stroke-width="1.5" stroke-linecap="round" stroke-linejoin="round"></path><path d="M21 13V8C21 5.23858 18.7614 3 16 3H8C5.23858 3 3 5.23858 3 8V16C3 18.7614 5.23858 21 8 21H13" stroke="#F26C0D" stroke-width="1.5" stroke-linecap="round" stroke-linejoin="round"></path><path d="M8 8L9.5 9.5L8 11" stroke="#F26C0D" stroke-width="1.5" stroke-linecap="round" stroke-linejoin="round"></path><path d="M11.5 12H13" stroke="#F26C0D" stroke-width="1.5" stroke-linecap="round" stroke-linejoin="round"></path></svg>