<svg width="32" height="33" viewBox="0 0 32 33" fill="none" xmlns="http://www.w3.org/2000/svg">
<g filter="url(#filter0_ddii_7028_1740)">
<path d="M10.5708 21.3333L9.90413 26.6666" stroke="#F26C0D" stroke-width="2" stroke-linecap="round" stroke-linejoin="round"/>
<path d="M25.3332 12V7.23733C25.3332 5.4494 23.8838 4 22.0958 4H5.90384C4.11591 4 2.6665 5.4494 2.6665 7.23733V18.096C2.6665 19.8839 4.11591 21.3333 5.90384 21.3333H14.6665" stroke="#F26C0D" stroke-width="2" stroke-linecap="round" stroke-linejoin="round"/>
<path d="M7.9043 26.6667H14.667" stroke="#F26C0D" stroke-width="2" stroke-linecap="round" stroke-linejoin="round"/>
<path d="M14 9.99998H20" stroke="#F26C0D" stroke-width="2" stroke-linecap="round" stroke-linejoin="round"/>
<path d="M7.3335 10.0048L8.21852 10.8L10.0002 9.20001" stroke="#F26C0D" stroke-width="2" stroke-linecap="round" stroke-linejoin="round"/>
<path d="M14 15.3334H15.3333" stroke="#F26C0D" stroke-width="2" stroke-linecap="round" stroke-linejoin="round"/>
<path d="M7.3335 15.3381L8.21854 16.1333L10.0002 14.5333" stroke="#F26C0D" stroke-width="2" stroke-linecap="round" stroke-linejoin="round"/>
<path fill-rule="evenodd" clip-rule="evenodd" d="M18.6665 27.3333V18C18.6665 16.8952 21.0543 16 23.9998 16C26.9454 16 29.3332 16.8952 29.3332 18V27.3333C29.3332 28.4381 26.9454 29.3333 23.9998 29.3333C21.0543 29.3333 18.6665 28.4381 18.6665 27.3333Z" stroke="#F26C0D" stroke-width="2" stroke-linecap="round" stroke-linejoin="round"/>
<path d="M29.3332 23.3333C29.3332 24.4381 26.9454 25.3333 23.9998 25.3333C21.0543 25.3333 18.6665 24.4381 18.6665 23.3333" stroke="#F26C0D" stroke-width="2" stroke-linecap="round" stroke-linejoin="round"/>
<path d="M29.3332 19.3333C29.3332 20.4381 26.9454 21.3333 23.9998 21.3333C21.0543 21.3333 18.6665 20.4381 18.6665 19.3333" stroke="#F26C0D" stroke-width="2" stroke-linecap="round" stroke-linejoin="round"/>
</g>
<defs>
<filter id="filter0_ddii_7028_1740" x="-1" y="0" width="34" height="34" filterUnits="userSpaceOnUse" color-interpolation-filters="sRGB">
<feFlood flood-opacity="0" result="BackgroundImageFix"/>
<feColorMatrix in="SourceAlpha" type="matrix" values="0 0 0 0 0 0 0 0 0 0 0 0 0 0 0 0 0 0 127 0" result="hardAlpha"/>
<feOffset dy="1"/>
<feGaussianBlur stdDeviation="0.5"/>
<feComposite in2="hardAlpha" operator="out"/>
<feColorMatrix type="matrix" values="0 0 0 0 0 0 0 0 0 0 0 0 0 0 0 0 0 0 0.04 0"/>
<feBlend mode="normal" in2="BackgroundImageFix" result="effect1_dropShadow_7028_1740"/>
<feColorMatrix in="SourceAlpha" type="matrix" values="0 0 0 0 0 0 0 0 0 0 0 0 0 0 0 0 0 0 127 0" result="hardAlpha"/>
<feOffset dy="1"/>
<feComposite in2="hardAlpha" operator="out"/>
<feColorMatrix type="matrix" values="0 0 0 0 0 0 0 0 0 0 0 0 0 0 0 0 0 0 0.01 0"/>
<feBlend mode="normal" in2="effect1_dropShadow_7028_1740" result="effect2_dropShadow_7028_1740"/>
<feBlend mode="normal" in="SourceGraphic" in2="effect2_dropShadow_7028_1740" result="shape"/>
<feColorMatrix in="SourceAlpha" type="matrix" values="0 0 0 0 0 0 0 0 0 0 0 0 0 0 0 0 0 0 127 0" result="hardAlpha"/>
<feOffset dy="1"/>
<feComposite in2="hardAlpha" operator="arithmetic" k2="-1" k3="1"/>
<feColorMatrix type="matrix" values="0 0 0 0 1 0 0 0 0 1 0 0 0 0 1 0 0 0 0.25 0"/>
<feBlend mode="normal" in2="shape" result="effect3_innerShadow_7028_1740"/>
<feColorMatrix in="SourceAlpha" type="matrix" values="0 0 0 0 0 0 0 0 0 0 0 0 0 0 0 0 0 0 127 0" result="hardAlpha"/>
<feOffset dy="-0.5"/>
<feComposite in2="hardAlpha" operator="arithmetic" k2="-1" k3="1"/>
<feColorMatrix type="matrix" values="0 0 0 0 0 0 0 0 0 0 0 0 0 0 0 0 0 0 0.08 0"/>
<feBlend mode="normal" in2="effect3_innerShadow_7028_1740" result="effect4_innerShadow_7028_1740"/>
</filter>
</defs>
</svg>
