<svg width="32" height="32" viewBox="0 0 32 32" fill="none" xmlns="http://www.w3.org/2000/svg">
<path d="M17.6665 21.9397V25.4028C17.6665 26.1603 18.0945 26.8529 18.7721 27.1916L19.5444 27.5778C20.6704 28.1408 21.9959 28.1408 23.122 27.5778L23.8943 27.1916C24.5718 26.8529 24.9998 26.1603 24.9998 25.4028V21.9397" stroke="#F26C0D" stroke-width="2" stroke-linecap="round" stroke-linejoin="round"/>
<path fill-rule="evenodd" clip-rule="evenodd" d="M15.4245 20.8695L19.8951 23.0072C20.8045 23.4421 21.8617 23.4421 22.7711 23.0072L27.2417 20.8695C27.7049 20.648 27.9997 20.1801 27.9997 19.6667C27.9997 19.1532 27.7049 18.6854 27.2417 18.4638L22.7711 16.3261C21.8617 15.8913 20.8045 15.8913 19.8951 16.3261L15.4245 18.4638C14.9613 18.6854 14.6665 19.1532 14.6665 19.6667C14.6665 20.1801 14.9613 20.648 15.4245 20.8695V20.8695Z" stroke="#F26C0D" stroke-width="2" stroke-linecap="round" stroke-linejoin="round"/>
<path d="M28.0002 19.658V22.6667" stroke="#F26C0D" stroke-width="2" stroke-linecap="round" stroke-linejoin="round"/>
<path d="M16.0002 13.3334V6.66669" stroke="#F26C0D" stroke-width="2" stroke-linecap="round" stroke-linejoin="round"/>
<path d="M9.99993 20.0271C8.60918 20.0305 7.24539 20.411 6.05374 21.128C5.64788 21.3924 5.13027 21.415 4.7029 21.187C4.27554 20.9589 4.00614 20.5164 3.99985 20.032L3.99995 7.51334C3.98828 6.96962 4.2088 6.44667 4.60629 6.07548C7.91579 3.09249 13.0169 3.35718 15.9998 6.66668" stroke="#F26C0D" stroke-width="2" stroke-linecap="round" stroke-linejoin="round"/>
<path d="M28 14.6663L27.9999 7.51334C28.0116 6.96961 27.791 6.44666 27.3936 6.07547C24.0841 3.09249 18.983 3.35718 16 6.66667" stroke="#F26C0D" stroke-width="2" stroke-linecap="round" stroke-linejoin="round"/>
</svg>
